<?xml version="1.0" standalone="no"?>
<!DOCTYPE svg PUBLIC "-//W3C//DTD SVG 20010904//EN"
 "http://www.w3.org/TR/2001/REC-SVG-20010904/DTD/svg10.dtd">
<svg version="1.0" xmlns="http://www.w3.org/2000/svg"
 width="217.000000pt" height="217.000000pt" viewBox="0 0 217.000000 217.000000"
 preserveAspectRatio="xMidYMid meet">
<metadata>
Created by potrace 1.14, written by Peter Selinger 2001-2017
</metadata>
<g transform="translate(0.000000,217.000000) scale(0.100000,-0.100000)"
fill="#000000" stroke="none">
<path d="M1034 2144 c-27 -14 -68 -39 -92 -55 -24 -16 -45 -29 -48 -29 -2 0
-23 -12 -47 -27 -127 -81 -261 -146 -477 -234 -124 -50 -168 -72 -177 -90 -11
-22 -12 -309 0 -349 2 -8 7 -33 12 -55 19 -100 58 -229 103 -340 9 -22 48
-103 87 -180 121 -238 262 -440 418 -598 229 -232 306 -235 525 -19 43 42 96
99 117 127 22 27 48 59 58 70 11 11 56 76 102 145 190 285 311 567 361 845 3
17 7 94 10 173 6 203 15 190 -186 272 -237 97 -311 133 -484 238 -37 23 -70
42 -72 42 -2 0 -36 20 -76 45 -40 25 -75 45 -79 45 -3 0 -28 -12 -55 -26z
m203 -153 c223 -133 326 -184 543 -272 58 -23 110 -46 117 -51 9 -7 11 -49 8
-151 -4 -173 -36 -313 -118 -521 -63 -159 -232 -451 -332 -574 -119 -147 -191
-224 -255 -271 -19 -14 -37 -28 -40 -31 -13 -14 -52 -30 -70 -30 -48 0 -143
69 -235 170 -28 30 -55 59 -61 65 -28 25 -191 254 -246 347 -142 238 -250 518
-274 708 -4 30 -8 66 -10 80 -2 14 -4 63 -4 109 -1 65 3 88 16 102 10 11 23
19 29 19 12 0 132 45 205 77 130 57 218 103 415 217 11 7 46 27 77 45 32 18
61 37 64 42 3 5 9 9 14 9 4 0 75 -40 157 -89z"/>
<path d="M1045 1969 c-22 -12 -78 -45 -125 -74 -47 -29 -95 -55 -108 -59 -12
-4 -22 -12 -22 -17 0 -5 -9 -9 -19 -9 -11 0 -21 -4 -23 -8 -3 -7 -109 -62
-125 -64 -4 -1 -29 -12 -54 -25 -26 -13 -53 -23 -61 -23 -8 0 -18 -3 -22 -7
-3 -4 -37 -18 -74 -33 -74 -28 -69 -20 -72 -135 -2 -59 9 -194 16 -206 2 -4 6
-23 10 -44 8 -55 79 -249 127 -347 l42 -87 470 470 470 469 -100 54 c-55 29
-140 79 -189 110 -50 31 -92 56 -96 56 -3 0 -23 -10 -45 -21z"/>
<path d="M1221 1116 l-534 -534 49 -69 c62 -87 82 -110 179 -209 121 -122 166
-142 229 -101 57 38 227 220 286 307 13 19 27 37 30 40 3 3 19 25 35 50 17 25
33 47 38 48 4 2 7 7 7 11 0 4 32 63 70 130 39 68 70 125 70 128 0 5 31 80 61
148 18 42 38 105 32 105 -3 0 -1 6 4 13 6 6 14 26 18 42 8 30 10 41 19 105 3
19 8 46 11 60 6 28 7 184 2 214 -3 13 -54 47 -71 46 0 0 -241 -240 -535 -534z"/>
</g>
</svg>
